Input #0, mov,mp4,m4a,3gp,3g2,mj2, from '01.mp4':
  Metadata:
    major_brand     : isom
    minor_version   : 512
    compatible_brands: isomiso2avc1mp41
    encoder         : Lavf58.20.100
  Duration: 00:00:10.03, start: 0.000000, bitrate: 466 kb/s
    Stream #0:0(und): Video: h264 (High) (avc1 / 0x31637661), yuv420p, 640x480, 395 kb/s, 25.10 fps, 25 tbr, 12800 tbn, 50 tbc (default)
    Metadata:
      handler_name    : VideoHandler
    Stream #0:1(und): Audio: aac (LC) (mp4a / 0x6134706D), 44100 Hz, stereo, fltp, 64 kb/s (default)
    Metadata:
      handler_name    : SoundHandler
音视频分离
Demuxing video from file '01.mp4' into '03.yuv'
Demuxing audio from file '01.mp4' into '03.pcm'
Demuxing succeeded.
Play the output video file with the command:
ffplay -f rawvideo -pix_fmt yuv420p -video_size 640x480 03.yuv
Warning: the sample format the decoder produced is planar (fltp). This example will output the first channel only.
Play the output audio file with the command:
ffplay -f f32le -ac 1 -ar 44100 03.pcm
